<?xml version="1.0" encoding="utf-8"?>
<!-- Generator: Adobe Illustrator 19.1.0, SVG Export Plug-In . SVG Version: 6.00 Build 0)  -->
<svg version="1.1" id="Layer_1" xmlns="http://www.w3.org/2000/svg" xmlns:xlink="http://www.w3.org/1999/xlink" x="0px" y="0px"
	 viewBox="0 0 684 459" style="enable-background:new 0 0 684 459;" xml:space="preserve">
<style type="text/css">
	.st0{fill:#98C062;}
	.st1{fill:#9A79BA;stroke:#6F3F9C;stroke-width:2.5344;stroke-miterlimit:10;}
	.st2{fill:#6F3F9C;}
	.st3{fill:#9A79BA;}
	.st4{fill:none;stroke:#6F3F9C;stroke-width:2.5344;stroke-miterlimit:10;}
	.st5{fill:#FFFFFF;}
	.st6{opacity:0.9;fill:#A7C97A;enable-background:new    ;}
	.st7{fill:#C40368;}
	.st8{opacity:0.1;enable-background:new    ;}
	.st9{fill:none;stroke:#6F3F9C;stroke-width:1.2672;stroke-miterlimit:10;}
	.st10{fill:none;stroke:#9A79BA;stroke-width:1.2672;stroke-linecap:round;stroke-linejoin:round;stroke-miterlimit:10;}
	.st11{fill:none;}
	.st12{enable-background:new    ;}
	.st13{opacity:9.000000e-02;enable-background:new    ;}
	.st14{fill:#6DB3C5;stroke:#2E93AC;stroke-width:2.4743;stroke-linejoin:bevel;stroke-miterlimit:10;}
	.st15{fill:#6DB3C5;stroke:#2E93AC;stroke-width:2.018;stroke-miterlimit:10;}
	.st16{fill:#6DB3C5;stroke:#2E93AC;stroke-width:2.0282;stroke-miterlimit:10;}
	.st17{fill:#6DB3C5;stroke:#2E93AC;stroke-width:2.2456;stroke-miterlimit:10;}
	.st18{fill:#2E93AC;}
	.st19{fill:none;stroke:#2E93AC;stroke-width:2.376;stroke-linecap:round;stroke-linejoin:round;stroke-miterlimit:10;}
	.st20{fill:none;stroke:#2E93AC;stroke-width:1.188;stroke-miterlimit:10;}
	.st21{fill:#6DB3C5;stroke:#2E93AC;stroke-width:2.3787;stroke-miterlimit:10;}
	.st22{fill:#6DB3C5;stroke:#2E93AC;stroke-width:2.0598;stroke-miterlimit:10;}
	.st23{fill:none;stroke:#2E93AC;stroke-width:3.564;stroke-miterlimit:10;}
	.st24{fill:none;stroke:#6DB3C5;stroke-width:0.594;stroke-miterlimit:10;}
	.st25{fill:#6DB3C5;stroke:#2E93AC;stroke-width:2.2817;stroke-miterlimit:10;}
	.st26{font-family:'OpenSans-Bold';}
	.st27{font-size:19.38px;}
	.st28{font-family:'OpenSans';}
	.st29{font-size:11.3355px;}
	.st30{fill:none;stroke:#2E93AC;stroke-width:1.4769;stroke-miterlimit:10;}
	.st31{fill:#6DB3C5;}
	.st32{fill:none;stroke:#6DB3C5;stroke-width:1.188;stroke-miterlimit:10;}
	.st33{fill:#6DB3C5;stroke:#2E93AC;stroke-width:2.376;stroke-miterlimit:10;}
	.st34{fill:none;stroke:#2E93AC;stroke-width:2.376;stroke-miterlimit:10;}
	.st35{clip-path:url(#SVGID_2_);}
	.st36{fill:none;stroke:#6DB3C5;stroke-width:1.5174;stroke-miterlimit:10;}
	.st37{opacity:0.9;fill:#2E93AC;enable-background:new    ;}
</style>
<rect class="st0" width="684" height="459"/>
<polygon class="st14" points="210.1,284.8 75.2,284.8 65.7,300.6 210.1,300.6 "/>
<rect x="225.6" y="297.2" class="st15" width="311.6" height="91.3"/>
<rect x="537.4" y="131.2" class="st16" width="48.4" height="257.3"/>
<rect x="65.8" y="300.5" class="st17" width="117.4" height="88"/>
<g>
	<g>
		<rect x="508.9" y="336.2" class="st18" width="6.5" height="19.3"/>
		<g>
			<polyline class="st19" points="508.2,333.7 512.1,331.9 516.2,333.7 			"/>
			<line class="st19" x1="512.1" y1="328.9" x2="512.1" y2="331.9"/>
		</g>
	</g>
	<g>
		<rect x="482.2" y="336.2" class="st18" width="6.5" height="19.3"/>
		<g>
			<polyline class="st19" points="481.5,333.7 485.5,331.9 489.5,333.7 			"/>
			<line class="st19" x1="485.5" y1="328.9" x2="485.5" y2="331.9"/>
		</g>
	</g>
	<g>
		<rect x="455.5" y="336.2" class="st18" width="6.5" height="19.3"/>
		<g>
			<polyline class="st19" points="454.8,333.7 458.8,331.9 462.8,333.7 			"/>
			<line class="st19" x1="458.8" y1="328.9" x2="458.8" y2="331.9"/>
		</g>
	</g>
	<g>
		<rect x="428.9" y="336.2" class="st18" width="6.5" height="19.3"/>
		<g>
			<polyline class="st19" points="428.1,333.7 432.1,331.9 436.1,333.7 			"/>
			<line class="st19" x1="432.1" y1="328.9" x2="432.1" y2="331.9"/>
		</g>
	</g>
	<g>
		<rect x="402.2" y="336.2" class="st18" width="6.5" height="19.3"/>
		<g>
			<polyline class="st19" points="401.4,333.7 405.4,331.9 409.5,333.7 			"/>
			<line class="st19" x1="405.4" y1="328.9" x2="405.4" y2="331.9"/>
		</g>
	</g>
	<g>
		<rect x="375.5" y="336.2" class="st18" width="6.5" height="19.3"/>
		<g>
			<polyline class="st19" points="374.7,333.7 378.8,331.9 382.8,333.7 			"/>
			<line class="st19" x1="378.7" y1="328.9" x2="378.7" y2="331.9"/>
		</g>
	</g>
	<g>
		<rect x="348.8" y="336.2" class="st18" width="6.5" height="19.3"/>
		<g>
			<polyline class="st19" points="348.1,333.7 352.1,331.9 356.1,333.7 			"/>
			<line class="st19" x1="352" y1="328.9" x2="352" y2="331.9"/>
		</g>
	</g>
	<g>
		<rect x="322.1" y="336.2" class="st18" width="6.5" height="19.3"/>
		<g>
			<polyline class="st19" points="321.4,333.7 325.4,331.9 329.4,333.7 			"/>
			<line class="st19" x1="325.4" y1="328.9" x2="325.4" y2="331.9"/>
		</g>
	</g>
	<g>
		<rect x="295.4" y="336.2" class="st18" width="6.5" height="19.3"/>
		<g>
			<polyline class="st19" points="294.7,333.7 298.7,331.9 302.7,333.7 			"/>
			<line class="st19" x1="298.7" y1="328.9" x2="298.7" y2="331.9"/>
		</g>
	</g>
	<circle class="st18" cx="285.4" cy="330.6" r="1.2"/>
	<circle class="st18" cx="312.1" cy="330.6" r="1.2"/>
	<circle class="st18" cx="338.7" cy="330.6" r="1.2"/>
	<circle class="st18" cx="365.4" cy="330.6" r="1.2"/>
	<circle class="st18" cx="392.1" cy="330.6" r="1.2"/>
	<circle class="st18" cx="418.8" cy="330.6" r="1.2"/>
	<circle class="st18" cx="445.5" cy="330.6" r="1.2"/>
	<circle class="st18" cx="472.2" cy="330.6" r="1.2"/>
	<circle class="st18" cx="498.8" cy="330.6" r="1.2"/>
</g>
<g>
	<path class="st18" d="M345.9,309.2c0-2.4-1.3-4.9-2.5-4.9c-1.3,0-2.5,2.5-2.5,4.9H345.9z"/>
	<path class="st18" d="M353.7,309.2c0-2.4-1.3-4.9-2.5-4.9c-1.4,0-2.5,2.5-2.5,4.9H353.7z"/>
	<path class="st18" d="M361.6,309.2c0-2.4-1.3-4.9-2.5-4.9c-1.4,0-2.5,2.5-2.5,4.9H361.6z"/>
	<path class="st18" d="M369.5,309.2c0-2.4-1.3-4.9-2.5-4.9c-1.4,0-2.5,2.5-2.5,4.9H369.5z"/>
	<path class="st18" d="M377.4,309.2c0-2.4-1.3-4.9-2.5-4.9c-1.3,0-2.5,2.5-2.5,4.9H377.4z"/>
	<path class="st18" d="M385.2,309.2c0-2.4-1.3-4.9-2.5-4.9c-1.3,0-2.5,2.5-2.5,4.9H385.2z"/>
	<path class="st18" d="M393.1,309.2c0-2.4-1.3-4.9-2.5-4.9c-1.4,0-2.5,2.5-2.5,4.9H393.1z"/>
	<path class="st18" d="M401,309.2c0-2.4-1.3-4.9-2.5-4.9c-1.4,0-2.5,2.5-2.5,4.9H401z"/>
</g>
<g>
	<path class="st18" d="M412.1,309.2c0-2.4-1.3-4.9-2.5-4.9c-1.4,0-2.5,2.5-2.5,4.9H412.1z"/>
	<path class="st18" d="M420,309.2c0-2.4-1.3-4.9-2.5-4.9c-1.4,0-2.5,2.5-2.5,4.9H420z"/>
	<path class="st18" d="M427.9,309.2c0-2.4-1.3-4.9-2.5-4.9c-1.3,0-2.5,2.5-2.5,4.9H427.9z"/>
	<path class="st18" d="M435.7,309.2c0-2.4-1.3-4.9-2.5-4.9c-1.3,0-2.5,2.5-2.5,4.9H435.7z"/>
	<path class="st18" d="M443.6,309.2c0-2.4-1.3-4.9-2.5-4.9c-1.4,0-2.5,2.5-2.5,4.9H443.6z"/>
	<path class="st18" d="M451.5,309.2c0-2.4-1.3-4.9-2.5-4.9c-1.4,0-2.5,2.5-2.5,4.9H451.5z"/>
	<path class="st18" d="M459.3,309.2c0-2.4-1.3-4.9-2.5-4.9c-1.4,0-2.5,2.5-2.5,4.9H459.3z"/>
	<path class="st18" d="M467.2,309.2c0-2.4-1.3-4.9-2.5-4.9c-1.3,0-2.5,2.5-2.5,4.9H467.2z"/>
</g>
<g>
	<path class="st18" d="M242.8,309.2c0-2.4-1.3-4.9-2.5-4.9c-1.4,0-2.5,2.5-2.5,4.9H242.8z"/>
	<path class="st18" d="M250.7,309.2c0-2.4-1.3-4.9-2.5-4.9c-1.3,0-2.5,2.5-2.5,4.9H250.7z"/>
	<path class="st18" d="M258.6,309.2c0-2.4-1.3-4.9-2.5-4.9c-1.3,0-2.5,2.5-2.5,4.9H258.6z"/>
	<path class="st18" d="M266.4,309.2c0-2.4-1.3-4.9-2.5-4.9c-1.3,0-2.5,2.5-2.5,4.9H266.4z"/>
	<path class="st18" d="M274.3,309.2c0-2.4-1.3-4.9-2.5-4.9c-1.3,0-2.5,2.5-2.5,4.9H274.3z"/>
	<path class="st18" d="M282.2,309.2c0-2.4-1.3-4.9-2.5-4.9c-1.4,0-2.5,2.5-2.5,4.9H282.2z"/>
	<path class="st18" d="M290.1,309.2c0-2.4-1.3-4.9-2.5-4.9c-1.3,0-2.5,2.5-2.5,4.9H290.1z"/>
	<path class="st18" d="M297.9,309.2c0-2.4-1.3-4.9-2.5-4.9c-1.3,0-2.5,2.5-2.5,4.9H297.9z"/>
</g>
<g>
	<path class="st18" d="M334,309.2c0-2.4-1.3-4.9-2.5-4.9c-1.3,0-2.5,2.5-2.5,4.9H334z"/>
	<path class="st18" d="M326,309.2c0-2.4-1.3-4.9-2.5-4.9c-1.4,0-2.5,2.5-2.5,4.9H326z"/>
	<path class="st18" d="M318,309.2c0-2.4-1.3-4.9-2.5-4.9c-1.3,0-2.5,2.5-2.5,4.9H318z"/>
	<path class="st18" d="M310,309.2c0-2.4-1.3-4.9-2.5-4.9c-1.3,0-2.5,2.5-2.5,4.9H310z"/>
</g>
<g>
	<circle class="st18" cx="522.4" cy="372.6" r="6.1"/>
	<rect x="516.3" y="372.9" class="st18" width="12.2" height="15.3"/>
</g>
<g>
	<circle class="st18" cx="505.5" cy="372.6" r="6.1"/>
	<rect x="499.4" y="372.9" class="st18" width="12.2" height="15.3"/>
</g>
<g>
	<circle class="st18" cx="488.6" cy="372.6" r="6.1"/>
	<rect x="482.4" y="372.9" class="st18" width="12.2" height="15.3"/>
</g>
<g>
	<circle class="st18" cx="471.6" cy="372.6" r="6.1"/>
	<rect x="465.5" y="372.9" class="st18" width="12.2" height="15.3"/>
</g>
<g>
	<circle class="st18" cx="454.7" cy="372.6" r="6.1"/>
	<rect x="448.6" y="372.9" class="st18" width="12.2" height="15.3"/>
</g>
<g>
	<circle class="st18" cx="437.8" cy="372.6" r="6.1"/>
	<rect x="431.7" y="372.9" class="st18" width="12.2" height="15.3"/>
</g>
<g>
	<circle class="st18" cx="420.8" cy="372.6" r="6.1"/>
	<rect x="414.7" y="372.9" class="st18" width="12.2" height="15.3"/>
</g>
<g>
	<circle class="st18" cx="403.9" cy="372.6" r="6.1"/>
	<rect x="397.8" y="372.9" class="st18" width="12.2" height="15.3"/>
</g>
<g>
	<circle class="st18" cx="387" cy="372.6" r="6.1"/>
	<rect x="380.9" y="372.9" class="st18" width="12.2" height="15.3"/>
</g>
<g>
	<polygon class="st18" points="363.4,375.1 359.8,375.1 359.2,373.5 364,373.5 	"/>
	<rect x="360.4" y="375.1" class="st18" width="2.4" height="13.1"/>
	<circle class="st18" cx="370" cy="372.6" r="6.1"/>
	<rect x="363.9" y="372.9" class="st18" width="12.2" height="15.3"/>
</g>
<g>
	<circle class="st18" cx="353.1" cy="372.6" r="6.1"/>
	<rect x="347" y="372.9" class="st18" width="12.2" height="15.3"/>
</g>
<g>
	<circle class="st18" cx="336.2" cy="372.6" r="6.1"/>
	<rect x="330.1" y="372.9" class="st18" width="12.2" height="15.3"/>
</g>
<g>
	<circle class="st18" cx="319.3" cy="372.6" r="6.1"/>
	<rect x="313.2" y="372.9" class="st18" width="12.2" height="15.3"/>
</g>
<g>
	<circle class="st18" cx="302.3" cy="372.6" r="6.1"/>
	<rect x="296.2" y="372.9" class="st18" width="12.2" height="15.3"/>
</g>
<g>
	<circle class="st18" cx="285.4" cy="372.6" r="6.1"/>
	<rect x="279.3" y="372.9" class="st18" width="12.2" height="15.3"/>
</g>
<g>
	<circle class="st18" cx="268.5" cy="372.6" r="6.1"/>
	<rect x="262.4" y="372.9" class="st18" width="12.2" height="15.3"/>
</g>
<g>
	<circle class="st18" cx="251.5" cy="372.6" r="6.1"/>
	<rect x="245.4" y="372.9" class="st18" width="12.2" height="15.3"/>
</g>
<line class="st20" x1="202.8" y1="392.8" x2="537.2" y2="392.8"/>
<line class="st20" x1="202.8" y1="396.8" x2="537.2" y2="396.8"/>
<g>
	<path class="st18" d="M478.2,309.2c0-2.4-1.3-4.9-2.5-4.9c-1.4,0-2.5,2.5-2.5,4.9H478.2z"/>
	<path class="st18" d="M493.3,309.2c0-2.4-1.3-4.9-2.5-4.9c-1.4,0-2.5,2.5-2.5,4.9H493.3z"/>
	<path class="st18" d="M485.8,309.2c0-2.4-1.3-4.9-2.5-4.9c-1.3,0-2.5,2.5-2.5,4.9H485.8z"/>
</g>
<g>
	<path class="st18" d="M506.1,309.2c0-2.4-1.3-4.9-2.5-4.9c-1.4,0-2.5,2.5-2.5,4.9H506.1z"/>
	<path class="st18" d="M521.3,309.2c0-2.4-1.3-4.9-2.5-4.9c-1.4,0-2.5,2.5-2.5,4.9H521.3z"/>
	<path class="st18" d="M513.7,309.2c0-2.4-1.3-4.9-2.5-4.9c-1.3,0-2.5,2.5-2.5,4.9H513.7z"/>
</g>
<rect x="203.6" y="297" class="st21" width="22" height="91.5"/>
<polygon class="st22" points="537,297 203.3,297 213.7,270.3 537,270.3 "/>
<ellipse class="st18" cx="561.5" cy="118.2" rx="18.9" ry="4.8"/>
<line class="st23" x1="572.7" y1="79" x2="572.7" y2="114.6"/>
<line class="st23" x1="566.5" y1="79" x2="566.5" y2="114.6"/>
<line class="st23" x1="556.4" y1="79" x2="556.4" y2="114.6"/>
<line class="st23" x1="550.2" y1="79" x2="550.2" y2="114.6"/>
<g>
	<g>
		<path class="st18" d="M482.9,320.2c0-2.4-1.3-4.9-2.5-4.9c-1.4,0-2.5,2.5-2.5,4.9v2.3h5L482.9,320.2z"/>
		<g>
			<polyline class="st24" points="477.8,319.5 480.3,319.5 483.1,319.5 			"/>
			<line class="st24" x1="480.5" y1="322.6" x2="480.5" y2="319.5"/>
		</g>
	</g>
	<g>
		<path class="st18" d="M490.3,320.2c0-2.4-1.3-4.9-2.5-4.9c-1.4,0-2.5,2.5-2.5,4.9v2.3h5L490.3,320.2z"/>
		<g>
			<polyline class="st24" points="485.3,319.5 487.8,319.5 490.5,319.5 			"/>
			<line class="st24" x1="487.9" y1="322.6" x2="487.9" y2="319.5"/>
		</g>
	</g>
	<g>
		<path class="st18" d="M497.8,320.2c0-2.4-1.3-4.9-2.5-4.9c-1.4,0-2.5,2.5-2.5,4.9v2.3h5L497.8,320.2z"/>
		<g>
			<polyline class="st24" points="492.7,319.5 495.2,319.5 497.9,319.5 			"/>
			<line class="st24" x1="495.3" y1="322.6" x2="495.3" y2="319.5"/>
		</g>
	</g>
</g>
<g>
	<g>
		<path class="st18" d="M470.4,320.2c0-2.4-1.3-4.9-2.5-4.9c-1.3,0-2.5,2.5-2.5,4.9v2.3h5L470.4,320.2z"/>
		<g>
			<polyline class="st24" points="465.4,319.5 467.9,319.5 470.6,319.5 			"/>
			<line class="st24" x1="468" y1="322.6" x2="468" y2="319.5"/>
		</g>
	</g>
	<g>
		<path class="st18" d="M462.7,320.2c0-2.4-1.3-4.9-2.5-4.9c-1.3,0-2.5,2.5-2.5,4.9v2.3h5L462.7,320.2z"/>
		<g>
			<polyline class="st24" points="457.6,319.5 460.1,319.5 462.9,319.5 			"/>
			<line class="st24" x1="460.3" y1="322.6" x2="460.3" y2="319.5"/>
		</g>
	</g>
	<g>
		<path class="st18" d="M455,320.2c0-2.4-1.3-4.9-2.5-4.9c-1.4,0-2.5,2.5-2.5,4.9v2.3h5L455,320.2z"/>
		<g>
			<polyline class="st24" points="449.9,319.5 452.4,319.5 455.2,319.5 			"/>
			<line class="st24" x1="452.5" y1="322.6" x2="452.5" y2="319.5"/>
		</g>
	</g>
	<g>
		<path class="st18" d="M447.3,320.2c0-2.4-1.3-4.9-2.5-4.9c-1.4,0-2.5,2.5-2.5,4.9v2.3h5L447.3,320.2z"/>
		<g>
			<polyline class="st24" points="442.2,319.5 444.7,319.5 447.4,319.5 			"/>
			<line class="st24" x1="444.8" y1="322.6" x2="444.8" y2="319.5"/>
		</g>
	</g>
	<g>
		<path class="st18" d="M439.5,320.2c0-2.4-1.3-4.9-2.5-4.9c-1.4,0-2.5,2.5-2.5,4.9v2.3h5L439.5,320.2z"/>
		<g>
			<polyline class="st24" points="434.5,319.5 437,319.5 439.7,319.5 			"/>
			<line class="st24" x1="437.1" y1="322.6" x2="437.1" y2="319.5"/>
		</g>
	</g>
	<g>
		<path class="st18" d="M431.8,320.2c0-2.4-1.3-4.9-2.5-4.9c-1.3,0-2.5,2.5-2.5,4.9v2.3h5L431.8,320.2z"/>
		<g>
			<polyline class="st24" points="426.7,319.5 429.3,319.5 432,319.5 			"/>
			<line class="st24" x1="429.4" y1="322.6" x2="429.4" y2="319.5"/>
		</g>
	</g>
	<g>
		<path class="st18" d="M424.1,320.2c0-2.4-1.3-4.9-2.5-4.9c-1.3,0-2.5,2.5-2.5,4.9v2.3h5L424.1,320.2z"/>
		<g>
			<polyline class="st24" points="419,319.5 421.5,319.5 424.3,319.5 			"/>
			<line class="st24" x1="421.7" y1="322.6" x2="421.7" y2="319.5"/>
		</g>
	</g>
	<g>
		<path class="st18" d="M416.4,320.2c0-2.4-1.3-4.9-2.5-4.9c-1.4,0-2.5,2.5-2.5,4.9v2.3h5L416.4,320.2z"/>
		<g>
			<polyline class="st24" points="411.3,319.5 413.8,319.5 416.5,319.5 			"/>
			<line class="st24" x1="413.9" y1="322.6" x2="413.9" y2="319.5"/>
		</g>
	</g>
</g>
<g>
	<g>
		<path class="st18" d="M510.5,320.2c0-2.4-1.3-4.9-2.5-4.9c-1.3,0-2.5,2.5-2.5,4.9v2.3h5L510.5,320.2z"/>
		<g>
			<polyline class="st24" points="505.4,319.5 508,319.5 510.7,319.5 			"/>
			<line class="st24" x1="508.1" y1="322.6" x2="508.1" y2="319.5"/>
		</g>
	</g>
	<g>
		<path class="st18" d="M518,320.2c0-2.4-1.3-4.9-2.5-4.9c-1.3,0-2.5,2.5-2.5,4.9v2.3h5L518,320.2z"/>
		<g>
			<polyline class="st24" points="512.9,319.5 515.4,319.5 518.1,319.5 			"/>
			<line class="st24" x1="515.5" y1="322.6" x2="515.5" y2="319.5"/>
		</g>
	</g>
	<g>
		<path class="st18" d="M525.4,320.2c0-2.4-1.3-4.9-2.5-4.9c-1.3,0-2.5,2.5-2.5,4.9v2.3h5L525.4,320.2z"/>
		<g>
			<polyline class="st24" points="520.3,319.5 522.8,319.5 525.5,319.5 			"/>
			<line class="st24" x1="522.9" y1="322.6" x2="522.9" y2="319.5"/>
		</g>
	</g>
</g>
<g>
	<g>
		<path class="st18" d="M404.8,320.2c0-2.4-1.3-4.9-2.5-4.9c-1.3,0-2.5,2.5-2.5,4.9v2.3h5L404.8,320.2z"/>
		<g>
			<polyline class="st24" points="399.7,319.5 402.2,319.5 405,319.5 			"/>
			<line class="st24" x1="402.4" y1="322.6" x2="402.4" y2="319.5"/>
		</g>
	</g>
	<g>
		<path class="st18" d="M397,320.2c0-2.4-1.3-4.9-2.5-4.9c-1.4,0-2.5,2.5-2.5,4.9v2.3h5L397,320.2z"/>
		<g>
			<polyline class="st24" points="391.9,319.5 394.4,319.5 397.1,319.5 			"/>
			<line class="st24" x1="394.5" y1="322.6" x2="394.5" y2="319.5"/>
		</g>
	</g>
	<g>
		<path class="st18" d="M389.2,320.2c0-2.4-1.3-4.9-2.5-4.9c-1.4,0-2.5,2.5-2.5,4.9v2.3h5L389.2,320.2z"/>
		<g>
			<polyline class="st24" points="384.1,319.5 386.6,319.5 389.3,319.5 			"/>
			<line class="st24" x1="386.7" y1="322.6" x2="386.7" y2="319.5"/>
		</g>
	</g>
	<g>
		<path class="st18" d="M381.3,320.2c0-2.4-1.3-4.9-2.5-4.9c-1.3,0-2.5,2.5-2.5,4.9v2.3h5L381.3,320.2z"/>
		<g>
			<polyline class="st24" points="376.3,319.5 378.8,319.5 381.5,319.5 			"/>
			<line class="st24" x1="378.9" y1="322.6" x2="378.9" y2="319.5"/>
		</g>
	</g>
	<g>
		<path class="st18" d="M373.5,320.2c0-2.4-1.3-4.9-2.5-4.9c-1.4,0-2.5,2.5-2.5,4.9v2.3h5L373.5,320.2z"/>
		<g>
			<polyline class="st24" points="368.4,319.5 370.9,319.5 373.7,319.5 			"/>
			<line class="st24" x1="371.1" y1="322.6" x2="371.1" y2="319.5"/>
		</g>
	</g>
	<g>
		<path class="st18" d="M365.7,320.2c0-2.4-1.3-4.9-2.5-4.9c-1.3,0-2.5,2.5-2.5,4.9v2.3h5L365.7,320.2z"/>
		<g>
			<polyline class="st24" points="360.6,319.5 363.1,319.5 365.9,319.5 			"/>
			<line class="st24" x1="363.3" y1="322.6" x2="363.3" y2="319.5"/>
		</g>
	</g>
	<g>
		<path class="st18" d="M357.9,320.2c0-2.4-1.3-4.9-2.5-4.9c-1.4,0-2.5,2.5-2.5,4.9v2.3h5L357.9,320.2z"/>
		<g>
			<polyline class="st24" points="352.8,319.5 355.3,319.5 358,319.5 			"/>
			<line class="st24" x1="355.4" y1="322.6" x2="355.4" y2="319.5"/>
		</g>
	</g>
	<g>
		<path class="st18" d="M350.1,320.2c0-2.4-1.3-4.9-2.5-4.9c-1.3,0-2.5,2.5-2.5,4.9v2.3h5L350.1,320.2z"/>
		<g>
			<polyline class="st24" points="345,319.5 347.5,319.5 350.2,319.5 			"/>
			<line class="st24" x1="347.6" y1="322.6" x2="347.6" y2="319.5"/>
		</g>
	</g>
	<g>
		<path class="st18" d="M342.2,320.2c0-2.4-1.3-4.9-2.5-4.9c-1.3,0-2.5,2.5-2.5,4.9v2.3h5L342.2,320.2z"/>
		<g>
			<polyline class="st24" points="337.1,319.5 339.7,319.5 342.4,319.5 			"/>
			<line class="st24" x1="339.8" y1="322.6" x2="339.8" y2="319.5"/>
		</g>
	</g>
</g>
<g>
	<g>
		<path class="st18" d="M294,320.2c0-2.4-1.3-4.9-2.5-4.9c-1.3,0-2.5,2.5-2.5,4.9v2.3h5L294,320.2z"/>
		<g>
			<polyline class="st24" points="288.9,319.5 291.4,319.5 294.2,319.5 			"/>
			<line class="st24" x1="291.6" y1="322.6" x2="291.6" y2="319.5"/>
		</g>
	</g>
	<g>
		<path class="st18" d="M286.2,320.2c0-2.4-1.3-4.9-2.5-4.9c-1.3,0-2.5,2.5-2.5,4.9v2.3h5L286.2,320.2z"/>
		<g>
			<polyline class="st24" points="281.1,319.5 283.6,319.5 286.4,319.5 			"/>
			<line class="st24" x1="283.8" y1="322.6" x2="283.8" y2="319.5"/>
		</g>
	</g>
	<g>
		<path class="st18" d="M278.4,320.2c0-2.4-1.3-4.9-2.5-4.9c-1.3,0-2.5,2.5-2.5,4.9v2.3h5L278.4,320.2z"/>
		<g>
			<polyline class="st24" points="273.3,319.5 275.8,319.5 278.5,319.5 			"/>
			<line class="st24" x1="275.9" y1="322.6" x2="275.9" y2="319.5"/>
		</g>
	</g>
	<g>
		<path class="st18" d="M270.6,320.2c0-2.4-1.3-4.9-2.5-4.9c-1.4,0-2.5,2.5-2.5,4.9v2.3h5L270.6,320.2z"/>
		<g>
			<polyline class="st24" points="265.5,319.5 268,319.5 270.7,319.5 			"/>
			<line class="st24" x1="268.1" y1="322.6" x2="268.1" y2="319.5"/>
		</g>
	</g>
	<g>
		<path class="st18" d="M262.7,320.2c0-2.4-1.3-4.9-2.5-4.9c-1.3,0-2.5,2.5-2.5,4.9v2.3h5L262.7,320.2z"/>
		<g>
			<polyline class="st24" points="257.7,319.5 260.2,319.5 262.9,319.5 			"/>
			<line class="st24" x1="260.3" y1="322.6" x2="260.3" y2="319.5"/>
		</g>
	</g>
	<g>
		<path class="st18" d="M254.9,320.2c0-2.4-1.3-4.9-2.5-4.9c-1.3,0-2.5,2.5-2.5,4.9v2.3h5L254.9,320.2z"/>
		<g>
			<polyline class="st24" points="249.8,319.5 252.3,319.5 255.1,319.5 			"/>
			<line class="st24" x1="252.5" y1="322.6" x2="252.5" y2="319.5"/>
		</g>
	</g>
	<g>
		<path class="st18" d="M247.1,320.2c0-2.4-1.3-4.9-2.5-4.9c-1.3,0-2.5,2.5-2.5,4.9v2.3h5L247.1,320.2z"/>
		<g>
			<polyline class="st24" points="242,319.5 244.5,319.5 247.3,319.5 			"/>
			<line class="st24" x1="244.6" y1="322.6" x2="244.6" y2="319.5"/>
		</g>
	</g>
	<g>
		<path class="st18" d="M239.3,320.2c0-2.4-1.3-4.9-2.5-4.9c-1.3,0-2.5,2.5-2.5,4.9v2.3h5L239.3,320.2z"/>
		<g>
			<polyline class="st24" points="234.2,319.5 236.7,319.5 239.4,319.5 			"/>
			<line class="st24" x1="236.8" y1="322.6" x2="236.8" y2="319.5"/>
		</g>
	</g>
	<g>
		<path class="st18" d="M231.4,320.2c0-2.4-1.3-4.9-2.5-4.9c-1.4,0-2.5,2.5-2.5,4.9v2.3h5V320.2z"/>
		<g>
			<polyline class="st24" points="226.4,319.5 228.9,319.5 231.6,319.5 			"/>
			<line class="st24" x1="229" y1="322.6" x2="229" y2="319.5"/>
		</g>
	</g>
</g>
<g>
	<g>
		<path class="st18" d="M330.3,320.2c0-2.4-1.3-4.9-2.5-4.9c-1.3,0-2.5,2.5-2.5,4.9v2.3h5L330.3,320.2z"/>
		<g>
			<polyline class="st24" points="325.2,319.5 327.7,319.5 330.4,319.5 			"/>
			<line class="st24" x1="327.8" y1="322.6" x2="327.8" y2="319.5"/>
		</g>
	</g>
	<g>
		<path class="st18" d="M322.2,320.2c0-2.4-1.3-4.9-2.5-4.9c-1.4,0-2.5,2.5-2.5,4.9v2.3h5V320.2z"/>
		<g>
			<polyline class="st24" points="317.1,319.5 319.6,319.5 322.4,319.5 			"/>
			<line class="st24" x1="319.8" y1="322.6" x2="319.8" y2="319.5"/>
		</g>
	</g>
	<g>
		<path class="st18" d="M314.1,320.2c0-2.4-1.3-4.9-2.5-4.9c-1.3,0-2.5,2.5-2.5,4.9v2.3h5L314.1,320.2z"/>
		<g>
			<polyline class="st24" points="309.1,319.5 311.6,319.5 314.3,319.5 			"/>
			<line class="st24" x1="311.7" y1="322.6" x2="311.7" y2="319.5"/>
		</g>
	</g>
	<g>
		<path class="st18" d="M306.1,320.2c0-2.4-1.3-4.9-2.5-4.9c-1.3,0-2.5,2.5-2.5,4.9v2.3h5L306.1,320.2z"/>
		<g>
			<polyline class="st24" points="301,319.5 303.5,319.5 306.3,319.5 			"/>
			<line class="st24" x1="303.7" y1="322.6" x2="303.7" y2="319.5"/>
		</g>
	</g>
</g>
<ellipse class="st18" cx="214.7" cy="288.1" rx="11.7" ry="5.5"/>
<rect x="209.2" y="258.4" class="st18" width="10.9" height="18.6"/>
<polygon class="st18" points="219.7,280.1 209.6,280.1 208.2,276.8 221.1,276.8 "/>
<line class="st20" x1="222" y1="257.9" x2="207.3" y2="257.9"/>
<line class="st20" x1="222" y1="260.5" x2="207.3" y2="260.5"/>
<rect x="183.2" y="297" class="st25" width="20.2" height="91.5"/>
<g>
	<rect x="346.9" y="218.7" class="st11" width="134.8" height="14.9"/>
	<text transform="matrix(1 0 0 1 346.8518 233.4191)" class="st18 st26 st27">STOCKHOLMS</text>
	<rect x="383.7" y="239.9" class="st11" width="61" height="9.9"/>
	<text transform="matrix(1 0 0 1 383.7305 248.5383)" class="st18 st28 st29">Stadshuset</text>
</g>
<path class="st22" d="M537.8,373.8v14.7h51.6c0.4-4.1,6.1-7.3,13-7.3s12.6,3.2,13,7.3h19.2v-14.7H537.8z"/>
<path class="st30" d="M618.6,388.2c0-0.2,0-0.3,0-0.5c0-5.4-7.3-9.7-16.2-9.7c-9,0-16.2,4.4-16.2,9.7c0,0.2,0,0.3,0,0.5"/>
<rect x="562.2" y="324.1" class="st18" width="7.9" height="25.5"/>
<polygon class="st18" points="568.6,357.7 563.7,357.7 562.2,351.1 570.1,351.1 "/>
<rect x="579.2" y="127.1" class="st31" width="3.2" height="3.2"/>
<line class="st32" x1="580.8" y1="103.3" x2="580.8" y2="127.5"/>
<rect x="547.3" y="121.3" class="st18" width="27.3" height="9.7"/>
<rect x="561.2" y="310.7" class="st18" width="9.9" height="9.3"/>
<rect x="559.5" y="319.8" class="st18" width="13.4" height="2.7"/>
<circle class="st18" cx="554.7" cy="298" r="2.8"/>
<polygon class="st33" points="537.1,270.1 515.8,270.1 517.2,253.2 524,253.2 525.7,258.2 537.1,258.2 "/>
<line class="st34" x1="520.8" y1="232.8" x2="520.8" y2="252.8"/>
<rect x="460.8" y="372.9" class="st31" width="4.7" height="16.7"/>
<rect x="477.7" y="372.9" class="st31" width="4.7" height="16.7"/>
<path class="st6" d="M194.1,191.6c0.8,0,1.6-0.6,1.8-1.4c0.2-0.6,0.3-1.2,0.3-1.9c0-3.5-2.8-6.4-6.4-6.4c-0.3,0-0.5,0-0.8,0
	c0.1-0.4,0.1-0.8,0.1-1.2c0-3.5-2.8-6.4-6.4-6.4c-1.2,0-2.2,0.3-3.2,0.8c-2.6-3.3-6.6-5.5-11.2-5.5c-6.1,0-11.3,3.8-13.3,9.2
	c-1.1-0.4-2.2-0.6-3.4-0.5c-4.3,0.2-7.8,3.7-8,8.1c-0.1,1.4,0.2,2.7,0.8,3.9c0.3,0.7,1,1.1,1.7,1.1L194.1,191.6L194.1,191.6z"/>
<path class="st18" d="M309.1,138.7c-11.9,0-21.6-9.7-21.6-21.6c0-4.3,1.2-8.2,3.4-11.5c-6,3.8-10,10.6-10,18.2
	c0,11.9,9.7,21.6,21.6,21.6c7.7,0,14.4-4,18.2-10C317.3,137.5,313.4,138.7,309.1,138.7z"/>
<path class="st6" d="M320.1,150.2c-0.8,0-1.6-0.6-1.8-1.4c-0.2-0.6-0.3-1.2-0.3-1.9c0-3.5,2.8-6.4,6.4-6.4c0.3,0,0.5,0,0.8,0
	c-0.1-0.4-0.1-0.8-0.1-1.2c0-3.5,2.8-6.4,6.4-6.4c1.2,0,2.2,0.3,3.2,0.8c2.6-3.3,6.6-5.5,11.2-5.5c6.1,0,11.3,3.8,13.3,9.2
	c1.1-0.4,2.2-0.6,3.4-0.5c4.3,0.2,7.8,3.7,8,8.1c0.1,1.4-0.2,2.7-0.8,3.9c-0.3,0.7-1,1.1-1.7,1.1H320.1L320.1,150.2z"/>
<path class="st6" d="M341.7,169.7c1.5,0,2.7-1,3.1-2.3c0.3-1,0.5-2.1,0.5-3.2c0-6-4.9-10.9-10.9-10.9c-0.4,0-0.9,0-1.3,0.1
	c0.1-0.7,0.2-1.4,0.2-2.1c0-6-4.9-10.9-10.9-10.9c-2,0-3.8,0.5-5.4,1.5c-4.5-5.7-11.4-9.5-19.2-9.5c-10.4,0-19.3,6.6-22.8,15.8
	c-1.8-0.7-3.8-1-5.8-0.9c-7.4,0.4-13.4,6.4-13.7,13.8c-0.1,2.4,0.4,4.7,1.3,6.7c0.5,1.2,1.7,1.9,3,1.9H341.7z"/>
<polygon class="st18" points="362.5,107.8 363.2,112.8 368.2,112 363.7,114.3 366,118.8 362.5,115.2 358.9,118.8 361.2,114.3 
	356.7,112 361.7,112.8 "/>
<polygon class="st18" points="431.6,82.5 432.8,90.3 440.5,89 433.5,92.5 437.1,99.5 431.6,93.9 426.1,99.5 429.7,92.5 422.7,89 
	430.4,90.3 "/>
<polygon class="st18" points="267.8,202.7 268.6,208.5 274.4,207.5 269.2,210.1 271.9,215.3 267.8,211.1 263.7,215.3 266.4,210.1 
	261.1,207.5 266.9,208.5 "/>
<polygon class="st18" points="186.6,139.4 187.3,144.3 192.2,143.5 187.8,145.7 190.1,150.1 186.6,146.6 183.1,150.1 185.3,145.7 
	180.9,143.5 185.8,144.3 "/>
<polygon class="st18" points="446.3,161.1 447.2,166.8 452.9,165.9 447.7,168.5 450.4,173.6 446.3,169.5 442.2,173.6 444.9,168.5 
	439.7,165.9 445.4,166.8 "/>
<polygon class="st18" points="637,245.9 637.8,250.9 642.7,250.1 638.2,252.3 640.5,256.7 637,253.2 633.5,256.7 635.8,252.3 
	631.4,250.1 636.3,250.9 "/>
<rect x="427" y="372.9" class="st31" width="4.7" height="16.7"/>
<rect x="443.9" y="372.9" class="st31" width="4.7" height="16.7"/>
<rect x="393.1" y="372.9" class="st31" width="4.7" height="16.7"/>
<rect x="410" y="372.9" class="st31" width="4.7" height="16.7"/>
<rect x="359.3" y="372.9" class="st31" width="4.7" height="16.7"/>
<rect x="376.2" y="372.9" class="st31" width="4.7" height="16.7"/>
<rect x="342.3" y="372.9" class="st31" width="4.7" height="16.7"/>
<rect x="308.5" y="372.9" class="st31" width="4.7" height="16.7"/>
<rect x="325.4" y="372.9" class="st31" width="4.7" height="16.7"/>
<rect x="274.6" y="372.9" class="st31" width="4.7" height="16.7"/>
<rect x="291.5" y="372.9" class="st31" width="4.7" height="16.7"/>
<rect x="226.7" y="372.9" class="st31" width="18.7" height="16.7"/>
<rect x="257.7" y="372.9" class="st31" width="4.7" height="16.7"/>
<rect x="226.7" y="298.1" class="st8" width="309.5" height="4.9"/>
<circle class="st18" cx="566.2" cy="310.8" r="4"/>
<polygon class="st18" points="566.7,291.7 565.5,291.7 564.5,307.6 568,307.6 "/>
<line class="st20" x1="566.1" y1="292.5" x2="566.1" y2="282"/>
<g>
	<circle class="st18" cx="247.7" cy="334.9" r="4.1"/>
	<rect x="243.6" y="334.8" class="st18" width="8.1" height="20.2"/>
</g>
<g>
	<circle class="st18" cx="272.9" cy="334.9" r="4.1"/>
	<rect x="268.9" y="334.8" class="st18" width="8.1" height="20.2"/>
</g>
<g>
	<rect x="211.1" y="336.2" class="st18" width="6.5" height="19.3"/>
	<g>
		<polyline class="st19" points="210.4,333.7 214.4,331.9 218.4,333.7 		"/>
		<line class="st19" x1="214.3" y1="328.9" x2="214.3" y2="331.9"/>
	</g>
</g>
<g>
	<path class="st18" d="M213.3,309.2c0-2.4-1.3-4.9-2.5-4.9c-1.3,0-2.5,2.5-2.5,4.9H213.3z"/>
	<path class="st18" d="M220.9,309.2c0-2.4-1.3-4.9-2.5-4.9c-1.3,0-2.5,2.5-2.5,4.9H220.9z"/>
</g>
<g>
	<g>
		<circle class="st18" cx="214.2" cy="372.6" r="6.1"/>
		<rect x="208.1" y="372.9" class="st18" width="12.2" height="15.3"/>
	</g>
</g>
<path class="st18" d="M264,334.9c0-3.5-1.8-7.2-3.7-7.2c-1.9,0-3.7,3.7-3.7,7.2V355h7.4L264,334.9z"/>
<rect x="265.6" y="335" class="st18" width="2.1" height="20.1"/>
<rect x="253.4" y="335" class="st18" width="2.1" height="20.1"/>
<rect x="511.6" y="372.9" class="st31" width="4.7" height="16.7"/>
<rect x="528.5" y="372.9" class="st31" width="7.8" height="16.7"/>
<rect x="494.7" y="372.9" class="st31" width="4.7" height="16.7"/>
<polygon class="st8" points="233.1,389.5 226.7,389.5 226.7,298.2 "/>
<g>
	<path class="st18" d="M558.6,146.1c0-1.7-0.9-3.4-1.7-3.4c-0.9,0-1.7,1.7-1.7,3.4v9.6h3.5L558.6,146.1z"/>
	<path class="st18" d="M568.1,146.1c0-1.7-0.9-3.4-1.7-3.4c-0.9,0-1.7,1.7-1.7,3.4v9.6h3.5L568.1,146.1z"/>
</g>
<rect x="343" y="270.4" class="st18" width="3.1" height="7.3"/>
<rect x="405.9" y="270.4" class="st18" width="3.1" height="7.3"/>
<rect x="467.4" y="270.4" class="st18" width="3.1" height="7.3"/>
<rect x="279.7" y="270.4" class="st18" width="3.1" height="7.3"/>
<line class="st20" x1="221.6" y1="293.7" x2="536.9" y2="293.7"/>
<polygon class="st22" points="314.3,263.3 309.5,263.3 307.3,266.4 307.3,270.2 316.5,270.2 316.5,266.6 "/>
<rect x="308.4" y="270.2" class="st20" width="7" height="2.6"/>
<rect x="309.8" y="257.8" class="st22" width="4.2" height="5.5"/>
<rect x="540.6" y="127.1" class="st31" width="3.2" height="3.2"/>
<line class="st32" x1="542.1" y1="103.3" x2="542.1" y2="127.5"/>
<g>
	
		<rect x="557" y="60.5" transform="matrix(-0.7071 -0.7071 0.7071 -0.7071 912.4979 507.8718)" class="st18" width="8.9" height="8.9"/>
	<rect x="559" y="68.2" class="st18" width="4.9" height="10.9"/>
</g>
<path class="st18" d="M218.3,215c-3.1,0-5.5-2.5-5.5-5.5c0-1.1,0.3-2.1,0.9-3c-1.6,1-2.6,2.7-2.6,4.7c0,3.1,2.5,5.5,5.5,5.5
	c2,0,3.7-1,4.7-2.6C220.4,214.7,219.4,215,218.3,215z"/>
<polygon class="st18" points="314,257.9 309.8,257.9 311.2,230.3 312.7,230.3 "/>
<ellipse class="st18" cx="214.7" cy="248.7" rx="4.2" ry="5.8"/>
<line class="st20" x1="214.7" y1="215.9" x2="214.7" y2="243.5"/>
<path class="st18" d="M217.8,258.3h-6.3c0,0,1.1-2,1.1-4.5h4.2C216.8,255.9,217.8,258.3,217.8,258.3z"/>
<ellipse class="st18" cx="561.5" cy="79.4" rx="18.9" ry="4.8"/>
<path class="st18" d="M568.1,265.3c0-0.7-0.4-1.4-0.7-1.4c-0.4,0-0.7,0.7-0.7,1.4v4h1.5L568.1,265.3z"/>
<path class="st18" d="M550.6,224.4c0-0.7-0.4-1.4-0.7-1.4c-0.4,0-0.7,0.7-0.7,1.4v4h1.5V224.4z"/>
<path class="st18" d="M574.4,228.5c0-0.7-0.4-1.4-0.7-1.4c-0.4,0-0.7,0.7-0.7,1.4v4h1.5L574.4,228.5z"/>
<path class="st18" d="M547,200.6c0-0.7-0.4-1.4-0.7-1.4c-0.4,0-0.7,0.7-0.7,1.4v4h1.5L547,200.6z"/>
<path class="st18" d="M560.7,203c0-0.7-0.4-1.4-0.7-1.4c-0.4,0-0.7,0.7-0.7,1.4v4h1.5L560.7,203z"/>
<path class="st18" d="M576.1,205.9c0-0.7-0.4-1.4-0.7-1.4c-0.4,0-0.7,0.7-0.7,1.4v4h1.5V205.9z"/>
<path class="st18" d="M550,179.8c0-0.7-0.4-1.4-0.7-1.4c-0.4,0-0.7,0.7-0.7,1.4v4h1.5V179.8z"/>
<path class="st18" d="M574.7,184c0-0.7-0.4-1.4-0.7-1.4c-0.4,0-0.7,0.7-0.7,1.4v4h1.5V184z"/>
<path class="st18" d="M572.9,162.9c0-0.7-0.4-1.4-0.7-1.4c-0.4,0-0.7,0.7-0.7,1.4v4h1.5L572.9,162.9z"/>
<path class="st18" d="M550.9,162.9c0-0.7-0.4-1.4-0.7-1.4c-0.4,0-0.7,0.7-0.7,1.4v4h1.5V162.9z"/>
<rect x="538.5" y="132.2" class="st8" width="46.2" height="4.9"/>
<g>
	<rect x="70.9" y="316.8" class="st18" width="7.7" height="7.3"/>
	<rect x="175.7" y="316.8" class="st18" width="7.7" height="7.3"/>
	<rect x="88.4" y="316.8" class="st18" width="7.7" height="7.3"/>
	<rect x="105.9" y="316.8" class="st18" width="7.7" height="7.3"/>
	<rect x="123.3" y="316.8" class="st18" width="7.7" height="7.3"/>
	<rect x="140.8" y="316.8" class="st18" width="7.7" height="7.3"/>
	<rect x="158.3" y="316.8" class="st18" width="7.7" height="7.3"/>
</g>
<g>
	<rect x="70.9" y="329.3" class="st18" width="7.7" height="7.3"/>
	<rect x="175.7" y="329.3" class="st18" width="7.7" height="7.3"/>
	<rect x="88.4" y="329.3" class="st18" width="7.7" height="7.3"/>
	<rect x="105.9" y="329.3" class="st18" width="7.7" height="7.3"/>
	<rect x="123.3" y="329.3" class="st18" width="7.7" height="7.3"/>
	<rect x="140.8" y="329.3" class="st18" width="7.7" height="7.3"/>
	<rect x="158.3" y="329.3" class="st18" width="7.7" height="7.3"/>
</g>
<g>
	<rect x="70.9" y="341.9" class="st18" width="7.7" height="7.3"/>
	<rect x="175.7" y="341.9" class="st18" width="7.7" height="7.3"/>
	<rect x="88.4" y="341.9" class="st18" width="7.7" height="7.3"/>
	<rect x="105.9" y="341.9" class="st18" width="7.7" height="7.3"/>
	<rect x="123.3" y="341.9" class="st18" width="7.7" height="7.3"/>
	<rect x="140.8" y="341.9" class="st18" width="7.7" height="7.3"/>
	<rect x="158.3" y="341.9" class="st18" width="7.7" height="7.3"/>
</g>
<g>
	<rect x="70.9" y="354.4" class="st18" width="7.7" height="7.3"/>
	<rect x="175.7" y="354.4" class="st18" width="7.7" height="7.3"/>
	<rect x="88.4" y="354.4" class="st18" width="7.7" height="7.3"/>
	<rect x="105.9" y="354.4" class="st18" width="7.7" height="7.3"/>
	<rect x="123.3" y="354.4" class="st18" width="7.7" height="7.3"/>
	<rect x="140.8" y="354.4" class="st18" width="7.7" height="7.3"/>
	<rect x="158.3" y="354.4" class="st18" width="7.7" height="7.3"/>
</g>
<g>
	<path class="st18" d="M195.8,309.2c0-2.4-1.3-4.9-2.5-4.9c-1.4,0-2.5,2.5-2.5,4.9H195.8z"/>
	<rect x="189.4" y="316.8" class="st18" width="7.7" height="7.3"/>
	<rect x="189.4" y="329.2" class="st18" width="7.7" height="7.3"/>
	<rect x="189.4" y="341.7" class="st18" width="7.7" height="7.3"/>
	<rect x="189.4" y="354.5" class="st18" width="7.7" height="7.3"/>
</g>
<polygon class="st18" points="606.7,195.5 607.6,201.3 613.3,200.3 608.1,202.9 610.8,208.1 606.7,203.9 602.6,208.1 605.3,202.9 
	600.1,200.3 605.8,201.3 "/>
<polygon class="st18" points="109.5,223.4 110.3,228.3 115.2,227.5 110.8,229.7 113,234.1 109.5,230.6 106,234.1 108.4,229.7 
	103.9,227.5 108.8,228.3 "/>
<polygon class="st18" points="219.7,280 209.6,280 208.2,283.4 221.1,283.4 "/>
<path class="st18" d="M225.6,297h-21.6c0,0,3.6-2,3.6-4.5h14.2C221.8,294.2,225.6,297,225.6,297z"/>
<line class="st20" x1="202.8" y1="397.4" x2="202.8" y2="389.3"/>
<line class="st20" x1="537" y1="397.4" x2="537" y2="389.3"/>
<line class="st19" x1="617" y1="322.5" x2="617" y2="372.7"/>
<g>
	<g>
		<g>
			<rect id="XMLID_1_" x="618" y="325.2" class="st18" width="18.4" height="11.2"/>
		</g>
		<g>
			<defs>
				<rect id="SVGID_1_" x="618" y="325.2" width="18.4" height="11.2"/>
			</defs>
			<clipPath id="SVGID_2_">
				<use xlink:href="#SVGID_1_"  style="overflow:visible;"/>
			</clipPath>
			<g class="st35">
				<line class="st36" x1="624.4" y1="324.2" x2="624.4" y2="337.4"/>
				<line class="st36" x1="617.7" y1="331.1" x2="636.5" y2="331.1"/>
			</g>
		</g>
	</g>
</g>
<polygon class="st8" points="618.1,336.3 618.1,325.2 621.2,325.2 "/>
<polygon class="st8" points="511.4,389.5 536.3,389.5 536,258.9 "/>
<rect x="204.8" y="298.1" class="st8" width="19.7" height="4.9"/>
<rect x="184.3" y="298.1" class="st8" width="17.9" height="4.9"/>
<rect x="184.3" y="298.2" class="st8" width="17.9" height="89.2"/>
<rect x="66.9" y="301.7" class="st8" width="115.1" height="4.9"/>
<g>
	<g>
		<path class="st37" d="M159.3,247.7L159.3,247.7c-2.5,0-4.7,1.9-4.9,4.5l-11.7,118.8h33.9l-12.6-119.2
			C163.6,249.4,161.6,247.7,159.3,247.7z"/>
		<rect x="158.4" y="369.7" class="st18" width="2.4" height="19.6"/>
	</g>
	<g>
		<path class="st37" d="M122.7,247.7L122.7,247.7c-2.5,0-4.7,1.9-5,4.5L106,370.9h33.9l-12.6-119.2
			C127.1,249.4,125.1,247.7,122.7,247.7z"/>
		<rect x="121.8" y="369.7" class="st18" width="2.4" height="19.6"/>
	</g>
	<g>
		<path class="st37" d="M86.5,247.7L86.5,247.7c-2.5,0-4.7,1.9-5,4.5L69.8,370.9h33.9L91,251.8C90.8,249.4,88.9,247.7,86.5,247.7z"
			/>
		<rect x="85.6" y="369.7" class="st18" width="2.4" height="19.6"/>
	</g>
	<g>
		<path class="st37" d="M50.6,247.7L50.6,247.7c-2.5,0-4.7,1.9-5,4.5L33.9,370.9h33.9L55.1,251.8C54.9,249.4,52.9,247.7,50.6,247.7z
			"/>
		<rect x="49.7" y="369.7" class="st18" width="2.4" height="19.6"/>
	</g>
</g>
<g>
	<path class="st19" d="M181.9,426.4c26.3,0,26.3,5.9,52.6,5.9s26.3-6,52.6-6c26.3,0,26.3,5.9,52.6,5.9c26.3,0,26.3-6,52.6-6
		c26.3,0,26.3,5.9,52.6,5.9"/>
</g>
<g>
	<path class="st19" d="M288.9,414.5c26.3,0,26.3,5.9,52.6,5.9c26.3,0,26.3-6,52.6-6c26.3,0,26.3,5.9,52.6,5.9s26.3-6,52.6-6
		c26.3,0,26.3,5.9,52.6,5.9"/>
</g>
<g>
	<path class="st19" d="M387.5,437.6c26.3,0,26.3,5.9,52.6,5.9s26.3-6,52.6-6c26.3,0,26.3,5.9,52.6,5.9c26.3,0,26.3-6,52.6-6
		c26.3,0,26.3,5.9,52.6,5.9"/>
</g>
</svg>
