<?xml version="1.0" encoding="utf-8"?>
<!-- Generator: Adobe Illustrator 19.1.0, SVG Export Plug-In . SVG Version: 6.00 Build 0)  -->
<svg version="1.1" id="Layer_1" xmlns="http://www.w3.org/2000/svg" xmlns:xlink="http://www.w3.org/1999/xlink" x="0px" y="0px"
	 viewBox="0 0 684 459" style="enable-background:new 0 0 684 459;" xml:space="preserve">
<style type="text/css">
	.st0{fill:#98C062;}
	.st1{fill:#9A79BA;stroke:#6F3F9C;stroke-width:2.5344;stroke-miterlimit:10;}
	.st2{fill:#6F3F9C;}
	.st3{fill:#9A79BA;}
	.st4{fill:none;stroke:#6F3F9C;stroke-width:2.5344;stroke-miterlimit:10;}
	.st5{fill:#FFFFFF;}
	.st6{opacity:0.9;fill:#A7C97A;enable-background:new    ;}
	.st7{fill:#C40368;}
	.st8{opacity:0.1;enable-background:new    ;}
	.st9{fill:none;stroke:#6F3F9C;stroke-width:1.2672;stroke-miterlimit:10;}
	.st10{fill:none;stroke:#9A79BA;stroke-width:1.2672;stroke-linecap:round;stroke-linejoin:round;stroke-miterlimit:10;}
	.st11{fill:none;}
	.st12{font-family:'OpenSans-Bold';}
	.st13{font-size:20.672px;}
	.st14{font-family:'OpenSans';}
	.st15{font-size:12.0912px;}
	.st16{opacity:9.000000e-02;enable-background:new    ;}
	.st17{fill:#6DB3C5;stroke:#2E93AC;stroke-width:2.4743;stroke-linejoin:bevel;stroke-miterlimit:10;}
	.st18{fill:#6DB3C5;stroke:#2E93AC;stroke-width:2.018;stroke-miterlimit:10;}
	.st19{fill:#6DB3C5;stroke:#2E93AC;stroke-width:2.0282;stroke-miterlimit:10;}
	.st20{fill:#6DB3C5;stroke:#2E93AC;stroke-width:2.2456;stroke-miterlimit:10;}
	.st21{fill:#2E93AC;}
	.st22{fill:none;stroke:#2E93AC;stroke-width:2.376;stroke-linecap:round;stroke-linejoin:round;stroke-miterlimit:10;}
	.st23{fill:none;stroke:#2E93AC;stroke-width:1.188;stroke-miterlimit:10;}
	.st24{fill:#6DB3C5;stroke:#2E93AC;stroke-width:2.3787;stroke-miterlimit:10;}
	.st25{fill:#6DB3C5;stroke:#2E93AC;stroke-width:2.0598;stroke-miterlimit:10;}
	.st26{fill:none;stroke:#2E93AC;stroke-width:3.564;stroke-miterlimit:10;}
	.st27{fill:none;stroke:#6DB3C5;stroke-width:0.594;stroke-miterlimit:10;}
	.st28{fill:#6DB3C5;stroke:#2E93AC;stroke-width:2.2817;stroke-miterlimit:10;}
	.st29{enable-background:new    ;}
	.st30{fill:none;stroke:#2E93AC;stroke-width:1.4769;stroke-miterlimit:10;}
	.st31{fill:#6DB3C5;}
	.st32{fill:none;stroke:#6DB3C5;stroke-width:1.188;stroke-miterlimit:10;}
	.st33{fill:#6DB3C5;stroke:#2E93AC;stroke-width:2.376;stroke-miterlimit:10;}
	.st34{fill:none;stroke:#2E93AC;stroke-width:2.376;stroke-miterlimit:10;}
	.st35{clip-path:url(#SVGID_2_);}
	.st36{fill:none;stroke:#6DB3C5;stroke-width:1.5174;stroke-miterlimit:10;}
	.st37{opacity:0.9;fill:#2E93AC;enable-background:new    ;}
</style>
<rect class="st0" width="684" height="459"/>
<rect x="307.5" y="151.7" class="st1" width="70.1" height="237"/>
<rect x="366.6" y="251.6" class="st1" width="42.8" height="137.1"/>
<rect x="275.9" y="251.6" class="st1" width="42.8" height="137.1"/>
<g>
	<rect x="311.6" y="190" class="st2" width="2.9" height="4.1"/>
	<rect x="311.6" y="196.7" class="st2" width="2.9" height="4.1"/>
	<rect x="311.6" y="203.4" class="st2" width="2.9" height="4.1"/>
	<rect x="311.6" y="210.1" class="st2" width="2.9" height="4.1"/>
	<rect x="311.6" y="216.8" class="st2" width="2.9" height="4.1"/>
	<rect x="311.6" y="223.5" class="st2" width="2.9" height="4.1"/>
	<rect x="311.6" y="230.1" class="st2" width="2.9" height="4.1"/>
	<rect x="311.6" y="236.8" class="st2" width="2.9" height="4.1"/>
	<rect x="311.6" y="243.5" class="st2" width="2.9" height="4.1"/>
</g>
<g>
	<rect x="324.2" y="189.9" class="st2" width="2.9" height="4.1"/>
	<rect x="324.2" y="196.8" class="st2" width="2.9" height="4.1"/>
	<rect x="324.2" y="203.6" class="st2" width="2.9" height="4.1"/>
	<rect x="324.2" y="210.5" class="st2" width="2.9" height="4.1"/>
	<rect x="324.2" y="217.3" class="st2" width="2.9" height="4.1"/>
	<rect x="324.2" y="224.2" class="st2" width="2.9" height="4.1"/>
	<rect x="324.2" y="231" class="st2" width="2.9" height="4.1"/>
	<rect x="324.2" y="237.9" class="st2" width="2.9" height="4.1"/>
	<rect x="324.2" y="244.7" class="st2" width="2.9" height="4.1"/>
	<rect x="324.2" y="251.6" class="st2" width="2.9" height="4.1"/>
	<rect x="324.2" y="258.4" class="st2" width="2.9" height="4.1"/>
	<rect x="324.2" y="265.3" class="st2" width="2.9" height="4.1"/>
	<rect x="324.2" y="272.1" class="st2" width="2.9" height="4.1"/>
</g>
<g>
	<rect x="370.6" y="190" class="st2" width="2.9" height="4.1"/>
	<rect x="370.6" y="196.7" class="st2" width="2.9" height="4.1"/>
	<rect x="370.6" y="203.4" class="st2" width="2.9" height="4.1"/>
	<rect x="370.6" y="210.1" class="st2" width="2.9" height="4.1"/>
	<rect x="370.6" y="216.8" class="st2" width="2.9" height="4.1"/>
	<rect x="370.6" y="223.5" class="st2" width="2.9" height="4.1"/>
	<rect x="370.6" y="230.1" class="st2" width="2.9" height="4.1"/>
	<rect x="370.6" y="236.8" class="st2" width="2.9" height="4.1"/>
	<rect x="370.6" y="243.5" class="st2" width="2.9" height="4.1"/>
</g>
<g>
	<rect x="332.3" y="189.9" class="st2" width="2.9" height="4.1"/>
	<rect x="332.3" y="196.8" class="st2" width="2.9" height="4.1"/>
	<rect x="332.3" y="203.6" class="st2" width="2.9" height="4.1"/>
	<rect x="332.3" y="210.5" class="st2" width="2.9" height="4.1"/>
	<rect x="332.3" y="217.3" class="st2" width="2.9" height="4.1"/>
	<rect x="332.3" y="224.2" class="st2" width="2.9" height="4.1"/>
	<rect x="332.3" y="231" class="st2" width="2.9" height="4.1"/>
	<rect x="332.3" y="237.9" class="st2" width="2.9" height="4.1"/>
	<rect x="332.3" y="244.7" class="st2" width="2.9" height="4.1"/>
	<rect x="332.3" y="251.6" class="st2" width="2.9" height="4.1"/>
	<rect x="332.3" y="258.4" class="st2" width="2.9" height="4.1"/>
	<rect x="332.3" y="265.3" class="st2" width="2.9" height="4.1"/>
	<rect x="332.3" y="272.1" class="st2" width="2.9" height="4.1"/>
</g>
<g>
	<rect x="340.4" y="189.9" class="st2" width="2.9" height="4.1"/>
	<rect x="340.4" y="196.8" class="st2" width="2.9" height="4.1"/>
	<rect x="340.4" y="203.6" class="st2" width="2.9" height="4.1"/>
	<rect x="340.4" y="210.5" class="st2" width="2.9" height="4.1"/>
	<rect x="340.4" y="217.3" class="st2" width="2.9" height="4.1"/>
	<rect x="340.4" y="224.2" class="st2" width="2.9" height="4.1"/>
	<rect x="340.4" y="231" class="st2" width="2.9" height="4.1"/>
	<rect x="340.4" y="237.9" class="st2" width="2.9" height="4.1"/>
	<rect x="340.4" y="244.7" class="st2" width="2.9" height="4.1"/>
	<rect x="340.4" y="251.6" class="st2" width="2.9" height="4.1"/>
	<rect x="340.4" y="258.4" class="st2" width="2.9" height="4.1"/>
	<rect x="340.4" y="265.3" class="st2" width="2.9" height="4.1"/>
	<rect x="340.4" y="272.1" class="st2" width="2.9" height="4.1"/>
</g>
<g>
	<rect x="348.5" y="189.9" class="st2" width="2.9" height="4.1"/>
	<rect x="348.5" y="196.8" class="st2" width="2.9" height="4.1"/>
	<rect x="348.5" y="203.6" class="st2" width="2.9" height="4.1"/>
	<rect x="348.5" y="210.5" class="st2" width="2.9" height="4.1"/>
	<rect x="348.5" y="217.3" class="st2" width="2.9" height="4.1"/>
	<rect x="348.5" y="224.2" class="st2" width="2.9" height="4.1"/>
	<rect x="348.5" y="231" class="st2" width="2.9" height="4.1"/>
	<rect x="348.5" y="237.9" class="st2" width="2.9" height="4.1"/>
	<rect x="348.5" y="244.7" class="st2" width="2.9" height="4.1"/>
	<rect x="348.5" y="251.6" class="st2" width="2.9" height="4.1"/>
	<rect x="348.5" y="258.4" class="st2" width="2.9" height="4.1"/>
	<rect x="348.5" y="265.3" class="st2" width="2.9" height="4.1"/>
	<rect x="348.5" y="272.1" class="st2" width="2.9" height="4.1"/>
</g>
<g>
	<rect x="357.5" y="189.9" class="st2" width="2.9" height="4.1"/>
	<rect x="357.4" y="196.8" class="st2" width="2.9" height="4.1"/>
	<rect x="357.3" y="203.6" class="st2" width="2.9" height="4.1"/>
	<rect x="357.3" y="210.5" class="st2" width="2.9" height="4.1"/>
	<rect x="357.2" y="217.3" class="st2" width="2.9" height="4.1"/>
	<rect x="357.1" y="224.2" class="st2" width="2.9" height="4.1"/>
	<rect x="357" y="231" class="st2" width="2.9" height="4.1"/>
	<rect x="356.9" y="237.9" class="st2" width="2.9" height="4.1"/>
	<rect x="356.9" y="244.7" class="st2" width="2.9" height="4.1"/>
	<rect x="356.8" y="251.6" class="st2" width="2.9" height="4.1"/>
	<rect x="356.7" y="258.4" class="st2" width="2.9" height="4.1"/>
	<rect x="356.7" y="265.3" class="st2" width="2.9" height="4.1"/>
	<rect x="356.6" y="272.1" class="st2" width="2.9" height="4.1"/>
</g>
<g>
	<g>
		<rect x="289" y="279.3" class="st2" width="2.9" height="4.1"/>
		<rect x="288.9" y="286.2" class="st2" width="2.9" height="4.1"/>
		<rect x="288.8" y="293" class="st2" width="2.9" height="4.1"/>
		<rect x="288.7" y="299.9" class="st2" width="2.9" height="4.1"/>
		<rect x="288.6" y="306.7" class="st2" width="2.9" height="4.1"/>
		<rect x="288.6" y="313.6" class="st2" width="2.9" height="4.1"/>
		<rect x="288.5" y="320.4" class="st2" width="2.9" height="4.1"/>
		<rect x="288.4" y="327.3" class="st2" width="2.9" height="4.1"/>
	</g>
	<g>
		<rect x="295.9" y="279.3" class="st2" width="2.9" height="4.1"/>
		<rect x="295.9" y="286.2" class="st2" width="2.9" height="4.1"/>
		<rect x="295.8" y="293" class="st2" width="2.9" height="4.1"/>
		<rect x="295.7" y="299.9" class="st2" width="2.9" height="4.1"/>
		<rect x="295.6" y="306.7" class="st2" width="2.9" height="4.1"/>
		<rect x="295.5" y="313.6" class="st2" width="2.9" height="4.1"/>
		<rect x="295.5" y="320.4" class="st2" width="2.9" height="4.1"/>
		<rect x="295.4" y="327.3" class="st2" width="2.9" height="4.1"/>
	</g>
	<g>
		<rect x="303.1" y="279.3" class="st2" width="2.9" height="4.1"/>
		<rect x="303" y="286.2" class="st2" width="2.9" height="4.1"/>
		<rect x="302.9" y="293" class="st2" width="2.9" height="4.1"/>
		<rect x="302.9" y="299.9" class="st2" width="2.9" height="4.1"/>
		<rect x="302.8" y="306.7" class="st2" width="2.9" height="4.1"/>
	</g>
	<rect x="288.3" y="259.2" class="st2" width="3.7" height="10.8"/>
	<rect x="295.3" y="259.2" class="st2" width="3.7" height="10.8"/>
	<rect x="302.6" y="259.2" class="st2" width="3.7" height="10.8"/>
	<g>
		<rect x="289.1" y="272.9" class="st2" width="2.1" height="2.6"/>
		<rect x="289.4" y="273.2" class="st2" width="1.5" height="2"/>
	</g>
	<g>
		<rect x="296.1" y="272.9" class="st2" width="2.1" height="2.6"/>
		<rect x="296.4" y="273.2" class="st2" width="1.5" height="2"/>
	</g>
	<g>
		<rect x="303.4" y="272.9" class="st2" width="2.1" height="2.6"/>
		<rect x="303.7" y="273.2" class="st2" width="1.5" height="2"/>
	</g>
</g>
<g>
	<g>
		<rect x="386.5" y="279.3" class="st2" width="2.9" height="4.1"/>
		<rect x="386.5" y="286.2" class="st2" width="2.9" height="4.1"/>
		<rect x="386.4" y="293" class="st2" width="2.9" height="4.1"/>
		<rect x="386.3" y="299.9" class="st2" width="2.9" height="4.1"/>
		<rect x="386.2" y="306.7" class="st2" width="2.9" height="4.1"/>
		<rect x="386.2" y="313.6" class="st2" width="2.9" height="4.1"/>
		<rect x="386.1" y="320.4" class="st2" width="2.9" height="4.1"/>
		<rect x="386" y="327.3" class="st2" width="2.9" height="4.1"/>
	</g>
	<g>
		<rect x="393.8" y="279.3" class="st2" width="2.9" height="4.1"/>
		<rect x="393.7" y="286.2" class="st2" width="2.9" height="4.1"/>
		<rect x="393.7" y="293" class="st2" width="2.9" height="4.1"/>
		<rect x="393.6" y="299.9" class="st2" width="2.9" height="4.1"/>
		<rect x="393.5" y="306.7" class="st2" width="2.9" height="4.1"/>
		<rect x="393.4" y="313.6" class="st2" width="2.9" height="4.1"/>
		<rect x="393.3" y="320.4" class="st2" width="2.9" height="4.1"/>
		<rect x="393.3" y="327.3" class="st2" width="2.9" height="4.1"/>
	</g>
	<g>
		<rect x="379.5" y="279.3" class="st2" width="2.9" height="4.1"/>
		<rect x="379.4" y="286.2" class="st2" width="2.9" height="4.1"/>
		<rect x="379.3" y="293" class="st2" width="2.9" height="4.1"/>
		<rect x="379.2" y="299.9" class="st2" width="2.9" height="4.1"/>
		<rect x="379.1" y="306.7" class="st2" width="2.9" height="4.1"/>
	</g>
	<rect x="378.9" y="259.2" class="st2" width="3.7" height="10.8"/>
	<rect x="385.9" y="259.2" class="st2" width="3.7" height="10.8"/>
	<rect x="393.1" y="259.2" class="st2" width="3.7" height="10.8"/>
	<g>
		<rect x="379.7" y="272.9" class="st2" width="2.1" height="2.6"/>
		<rect x="380" y="273.2" class="st2" width="1.5" height="2"/>
	</g>
	<g>
		<rect x="386.7" y="272.9" class="st2" width="2.1" height="2.6"/>
		<rect x="387" y="273.2" class="st2" width="1.5" height="2"/>
	</g>
	<g>
		<rect x="394" y="272.9" class="st2" width="2.1" height="2.6"/>
		<rect x="394.3" y="273.2" class="st2" width="1.5" height="2"/>
	</g>
</g>
<rect x="332.6" y="162.4" class="st3" width="3.4" height="3.4"/>
<rect x="332.6" y="167.4" class="st3" width="3.4" height="9.1"/>
<rect x="328.3" y="115.3" class="st1" width="27.7" height="36.4"/>
<path class="st1" d="M339.3,88.9c0,1.7-2.1,8.4-4.7,8.4v18h16.1v-18c-2,0-4.7-6.2-4.7-8.4L339.3,88.9L339.3,88.9z"/>
<polygon class="st2" points="343.7,41.3 342.5,41.3 341.5,88.9 344.6,88.9 "/>
<rect x="366.6" y="187.5" class="st4" width="11.1" height="64"/>
<rect x="307.6" y="187.5" class="st4" width="11.1" height="64"/>
<g>
	<path class="st2" d="M334.8,123.2c-0.1-0.9-0.8-1.6-1.7-1.6s-1.6,0.7-1.7,1.6v5.5h3.4L334.8,123.2z"/>
	<path class="st2" d="M340.8,123.2c-0.1-0.9-0.8-1.6-1.7-1.6s-1.6,0.7-1.7,1.6v5.5h3.4L340.8,123.2z"/>
	<path class="st2" d="M347.2,123.2c-0.1-0.9-0.8-1.6-1.7-1.6s-1.6,0.7-1.7,1.6v5.5h3.4L347.2,123.2z"/>
	<path class="st2" d="M353.2,123.2c-0.1-0.9-0.8-1.6-1.7-1.6s-1.6,0.7-1.7,1.6v5.5h3.4L353.2,123.2z"/>
</g>
<path class="st6" d="M295.6,109.7c0-0.4,0.1-0.7,0.1-1.1c0-4.9-4-8.9-8.9-8.9c-3.2,0-6,1.7-7.6,4.2c-0.9-1.5-2.4-2.4-4.3-2.4
	c-1.1,0-2.1,0.4-3,1c-0.6-4.3-4.2-7.6-8.6-7.6c-1.6,0-3,0.4-4.3,1.2c-3.5-4.6-9.1-7.5-15.3-7.5c-8.3,0-15.4,5.2-18.2,12.6
	c-1.5-0.5-3-0.8-4.7-0.7c-5.9,0.3-10.7,5.1-11,11c-0.1,1.9,0.3,3.8,1,5.4c0.4,0.9,1.4,1.5,2.4,1.5h65.4c0.1,0,0.1,0,0.2,0h16.7
	V109.7z"/>
<circle class="st7" cx="417.1" cy="116.3" r="23"/>
<path class="st6" d="M417.9,140.3c-0.9,0-1.7-0.6-1.9-1.5c-0.2-0.6-0.3-1.3-0.3-2c0-3.8,3-6.8,6.8-6.8c0.3,0,0.5,0,0.8,0
	c-0.1-0.4-0.1-0.9-0.1-1.3c0-3.8,3-6.8,6.8-6.8c1.2,0,2.4,0.3,3.4,0.9c2.8-3.6,7.1-5.9,11.9-5.9c6.5,0,12,4.1,14.2,9.8
	c1.1-0.4,2.3-0.6,3.6-0.5c4.6,0.3,8.3,4,8.5,8.6c0.1,1.5-0.2,2.9-0.8,4.2c-0.3,0.7-1.1,1.2-1.8,1.2L417.9,140.3L417.9,140.3z"/>
<rect x="318.8" y="282.2" class="st1" width="47.7" height="21"/>
<rect x="320" y="153" class="st8" width="45.3" height="128"/>
<g>
	<polygon class="st2" points="335.8,133.8 334.7,133.8 334.1,130.7 336.4,130.7 	"/>
	<polygon class="st2" points="340.4,133.8 339.3,133.8 338.7,130.7 341,130.7 	"/>
	<polygon class="st2" points="331.2,133.8 330.2,133.8 329.6,130.7 331.8,130.7 	"/>
	<polygon class="st2" points="344.9,133.8 343.9,133.8 343.3,130.7 345.6,130.7 	"/>
	<polygon class="st2" points="349.5,133.8 348.5,133.8 347.8,130.7 350.1,130.7 	"/>
	<polygon class="st2" points="354.1,133.8 353,133.8 352.4,130.7 354.7,130.7 	"/>
</g>
<rect x="387.2" y="248.7" class="st2" width="1.9" height="1.3"/>
<rect x="386.5" y="246.9" class="st2" width="0.8" height="0.6"/>
<rect x="394.1" y="246.8" class="st2" width="0.7" height="0.6"/>
<path class="st2" d="M400.7,252.8H399v-2h0.3c0,0.4,0.8,0.8,1.5,0.8V252.8z"/>
<line class="st9" x1="366.6" y1="255.8" x2="409.2" y2="255.8"/>
<line class="st9" x1="366.6" y1="271.6" x2="409.2" y2="271.6"/>
<line class="st9" x1="366.6" y1="277" x2="409.2" y2="277"/>
<line class="st9" x1="277.2" y1="255.8" x2="319.9" y2="255.8"/>
<line class="st9" x1="277.2" y1="271.6" x2="319.9" y2="271.6"/>
<line class="st9" x1="277.2" y1="277" x2="319.9" y2="277"/>
<g>
	<rect x="331.4" y="287.6" class="st2" width="2.9" height="4.1"/>
	<rect x="331.3" y="294.4" class="st2" width="2.9" height="4.1"/>
</g>
<g>
	<rect x="339.3" y="287.6" class="st2" width="2.9" height="4.1"/>
	<rect x="339.2" y="294.4" class="st2" width="2.9" height="4.1"/>
</g>
<g>
	<rect x="323.3" y="287.6" class="st2" width="2.9" height="4.1"/>
	<rect x="323.3" y="294.4" class="st2" width="2.9" height="4.1"/>
</g>
<g>
	<rect x="347.5" y="287.6" class="st2" width="2.9" height="4.1"/>
	<rect x="347.4" y="294.4" class="st2" width="2.9" height="4.1"/>
</g>
<g>
	<rect x="356.4" y="287.6" class="st2" width="2.9" height="4.1"/>
	<rect x="356.3" y="294.4" class="st2" width="2.9" height="4.1"/>
</g>
<rect x="324.8" y="181.2" class="st2" width="2.3" height="3.6"/>
<rect x="332.2" y="181.2" class="st2" width="2.3" height="3.6"/>
<rect x="340.7" y="181.2" class="st2" width="2.3" height="3.6"/>
<rect x="348.6" y="181.2" class="st2" width="2.3" height="3.6"/>
<rect x="356.4" y="181.2" class="st2" width="2.3" height="3.6"/>
<rect x="312.2" y="181.2" class="st2" width="2.3" height="3.6"/>
<line class="st9" x1="377.5" y1="178.8" x2="307.6" y2="178.8"/>
<line class="st9" x1="377.5" y1="186.7" x2="307.6" y2="186.7"/>
<path class="st6" d="M319,194c0.9,0,1.7-0.6,1.9-1.5c0.2-0.6,0.3-1.3,0.3-2c0-3.8-3-6.8-6.8-6.8c-0.3,0-0.5,0-0.8,0
	c0.1-0.4,0.1-0.9,0.1-1.3c0-3.8-3-6.8-6.8-6.8c-1.2,0-2.4,0.3-3.4,0.9c-2.8-3.6-7.1-5.9-11.9-5.9c-6.5,0-12,4.1-14.2,9.8
	c-1.1-0.4-2.3-0.6-3.6-0.5c-4.6,0.3-8.3,4-8.5,8.6c-0.1,1.5,0.2,2.9,0.8,4.2c0.3,0.7,1.1,1.2,1.8,1.2L319,194L319,194z"/>
<g>
	<rect x="312.3" y="152.7" class="st9" width="2.1" height="2.7"/>
	<rect x="318.9" y="152.7" class="st9" width="2.1" height="2.7"/>
	<rect x="325.5" y="152.7" class="st9" width="2.1" height="2.7"/>
	<rect x="332.1" y="152.7" class="st9" width="2.1" height="2.7"/>
	<rect x="338.8" y="152.7" class="st9" width="2.1" height="2.7"/>
	<rect x="345.4" y="152.7" class="st9" width="2.1" height="2.7"/>
	<rect x="352" y="152.7" class="st9" width="2.1" height="2.7"/>
	<rect x="358.6" y="152.7" class="st9" width="2.1" height="2.7"/>
	<rect x="365.2" y="152.7" class="st9" width="2.1" height="2.7"/>
	<rect x="371.8" y="152.7" class="st9" width="2.1" height="2.7"/>
</g>
<line class="st4" x1="350.7" y1="97.3" x2="334.6" y2="97.3"/>
<ellipse class="st2" cx="342.8" cy="82.7" rx="3.9" ry="1.4"/>
<g>
	<circle class="st2" cx="342.7" cy="106.3" r="4.4"/>
	<polyline class="st10" points="342.5,103.9 342.5,107.2 344.7,106 	"/>
</g>
<g>
	<rect x="331.2" y="136.5" class="st9" width="7.9" height="11.9"/>
	<rect x="335.9" y="138" class="st2" width="1.8" height="9"/>
	<rect x="332.7" y="138" class="st2" width="2.1" height="9"/>
	<rect x="344.8" y="136.5" class="st9" width="7.9" height="11.9"/>
	<rect x="349.5" y="138" class="st2" width="1.8" height="9"/>
	<rect x="346.4" y="138" class="st2" width="2.1" height="9"/>
	<rect x="340.9" y="138" class="st2" width="2.1" height="9"/>
</g>
<line class="st9" x1="356" y1="119.2" x2="328.2" y2="119.2"/>
<g>
	<rect x="323.5" y="158.3" class="st9" width="4.8" height="17.7"/>
	<rect x="324.7" y="159.7" class="st2" width="2.4" height="3.4"/>
	<rect x="324.7" y="163.8" class="st2" width="2.4" height="10.9"/>
</g>
<g>
	<rect x="346.8" y="158.3" class="st9" width="4.8" height="17.7"/>
	<rect x="348" y="159.7" class="st2" width="2.4" height="3.4"/>
	<rect x="348" y="163.8" class="st2" width="2.4" height="10.9"/>
</g>
<g>
	<rect x="331.3" y="158.3" class="st9" width="4.8" height="17.7"/>
	<rect x="332.5" y="159.7" class="st2" width="2.4" height="3.4"/>
	<rect x="332.5" y="163.8" class="st2" width="2.4" height="10.9"/>
</g>
<g>
	<rect x="354.6" y="158.3" class="st9" width="4.8" height="17.7"/>
	<rect x="355.8" y="159.7" class="st2" width="2.4" height="3.4"/>
	<rect x="355.8" y="163.8" class="st2" width="2.4" height="10.9"/>
</g>
<g>
	<rect x="339.1" y="158.3" class="st9" width="4.8" height="17.7"/>
	<rect x="340.2" y="159.7" class="st2" width="2.4" height="3.4"/>
	<rect x="340.2" y="163.8" class="st2" width="2.4" height="10.9"/>
</g>
<g>
	<rect x="312.1" y="158.3" class="st9" width="4.8" height="17.7"/>
	<rect x="313.3" y="159.7" class="st2" width="2.4" height="3.4"/>
	<rect x="313.3" y="163.8" class="st2" width="2.4" height="10.9"/>
</g>
<g>
	<rect x="370.9" y="181.2" class="st2" width="2.3" height="3.6"/>
	<g>
		<rect x="369.6" y="158.3" class="st9" width="4.8" height="17.7"/>
		<rect x="370.8" y="159.7" class="st2" width="2.4" height="3.4"/>
		<rect x="370.8" y="163.8" class="st2" width="2.4" height="10.9"/>
	</g>
</g>
<path class="st6" d="M441,161.1c1.6,0,2.9-1,3.3-2.5c0.3-1.1,0.5-2.2,0.5-3.5c0-6.4-5.2-11.6-11.6-11.6c-0.5,0-0.9,0-1.4,0.1
	c0.1-0.7,0.2-1.5,0.2-2.2c0-6.4-5.2-11.6-11.6-11.6c-2.1,0-4.1,0.6-5.8,1.6c-4.8-6.1-12.2-10.1-20.5-10.1c-11.1,0-20.6,7-24.3,16.9
	c-1.9-0.7-4-1-6.2-0.9c-7.9,0.4-14.3,6.9-14.7,14.8c-0.1,2.6,0.4,5,1.4,7.2c0.6,1.3,1.8,2,3.2,2L441,161.1L441,161.1z"/>
<rect x="320.2" y="283.5" class="st8" width="45" height="18.4"/>
<polygon class="st8" points="342.7,311.7 364,311.7 364,186.7 "/>
<g>
	<circle class="st2" cx="398.5" cy="248.6" r="0.8"/>
	<circle class="st2" cx="382.9" cy="248.6" r="0.8"/>
	<circle class="st2" cx="390.6" cy="244.1" r="0.6"/>
	<circle class="st2" cx="390.6" cy="245.3" r="0.8"/>
	<circle class="st2" cx="390.6" cy="246.8" r="0.9"/>
	<path class="st2" d="M392,242.8v4.7h-2.6v-4.7c-1.4,0.5-2.4,1.9-2.4,3.5c0,2.1,1.7,3.8,3.8,3.8c2.1,0,3.8-1.7,3.8-3.8
		C394.5,244.8,393.5,243.4,392,242.8z"/>
	<polygon class="st2" points="395.3,247.2 394.2,247.2 394.2,246 395.8,246 	"/>
	<polygon class="st2" points="386.1,247.2 387.2,247.2 387.2,246 385.7,246 	"/>
	<circle class="st2" cx="386.4" cy="248.6" r="1.5"/>
	<circle class="st2" cx="395" cy="248.6" r="1.5"/>
	<rect x="382" y="249.7" class="st2" width="17.2" height="3.2"/>
	<rect x="392.3" y="248.7" class="st2" width="1.9" height="1.3"/>
	<polygon class="st2" points="401.8,242.9 401.4,242.9 401.1,242.9 400.7,247.4 402.1,247.4 	"/>
	<rect x="400.7" y="248" class="st2" width="1.5" height="1.3"/>
	<rect x="400.4" y="249.7" class="st2" width="2.1" height="3.1"/>
	<rect x="397.9" y="249.2" class="st2" width="1.1" height="0.8"/>
	<rect x="382.3" y="249.2" class="st2" width="1.1" height="0.8"/>
	<polygon class="st2" points="407.5,242.9 407,242.9 406.8,242.9 406.4,247.4 407.8,247.4 	"/>
	<rect x="406.4" y="248" class="st2" width="1.5" height="1.3"/>
	<rect x="406.1" y="249.7" class="st2" width="2.1" height="3.1"/>
	<circle class="st2" cx="404.4" cy="248.6" r="0.8"/>
	<rect x="403.8" y="249.2" class="st2" width="1.1" height="1.4"/>
	<rect x="401.1" y="247.2" class="st2" width="0.5" height="2.8"/>
	<rect x="406.8" y="247.2" class="st2" width="0.5" height="2.8"/>
</g>
<g>
	<circle class="st2" cx="286.9" cy="248.6" r="0.8"/>
	<circle class="st2" cx="302.5" cy="248.6" r="0.8"/>
	<circle class="st2" cx="294.7" cy="244.1" r="0.6"/>
	<circle class="st2" cx="294.7" cy="245.3" r="0.8"/>
	<circle class="st2" cx="294.7" cy="246.8" r="0.9"/>
	<path class="st2" d="M293.4,242.8v4.7h2.6v-4.7c1.4,0.5,2.4,1.9,2.4,3.5c0,2.1-1.7,3.8-3.8,3.8c-2.1,0-3.8-1.7-3.8-3.8
		C290.9,244.8,291.9,243.4,293.4,242.8z"/>
	<polygon class="st2" points="290.1,247.2 291.1,247.2 291.1,246 289.6,246 	"/>
	<polygon class="st2" points="299.3,247.2 298.2,247.2 298.2,246 299.7,246 	"/>
	<circle class="st2" cx="299" cy="248.6" r="1.5"/>
	<circle class="st2" cx="290.4" cy="248.6" r="1.5"/>
	<rect x="286.1" y="249.7" class="st2" width="17.2" height="3.2"/>
	<rect x="291.2" y="248.7" class="st2" width="1.9" height="1.3"/>
	<polygon class="st2" points="283.6,242.9 284,242.9 284.3,242.9 284.6,247.4 283.3,247.4 	"/>
	<rect x="283.2" y="248" class="st2" width="1.5" height="1.3"/>
	<rect x="282.9" y="249.7" class="st2" width="2.1" height="3.1"/>
	<rect x="286.4" y="249.2" class="st2" width="1.1" height="0.8"/>
	<rect x="302" y="249.2" class="st2" width="1.1" height="0.8"/>
	<polygon class="st2" points="277.9,242.9 278.3,242.9 278.6,242.9 278.9,247.4 277.6,247.4 	"/>
	<rect x="277.5" y="248" class="st2" width="1.5" height="1.3"/>
	<rect x="277.2" y="249.7" class="st2" width="2.1" height="3.1"/>
	<circle class="st2" cx="281" cy="248.6" r="0.8"/>
	<rect x="280.5" y="249.2" class="st2" width="1.1" height="1.4"/>
	<rect x="283.7" y="247.2" class="st2" width="0.5" height="2.8"/>
	<rect x="278" y="247.2" class="st2" width="0.5" height="2.8"/>
	<rect x="297.9" y="246.7" class="st2" width="1.3" height="0.9"/>
	<rect x="295.9" y="248.6" class="st2" width="2.2" height="1.3"/>
	<rect x="290.1" y="247.1" class="st2" width="1" height="0.4"/>
</g>
<g>
	<rect x="281.2" y="410.4" class="st11" width="122.3" height="17"/>
	<text transform="matrix(1 0 0 1 281.1918 426.1084)" class="st2 st12 st13">WARSZAWA</text>
	<rect x="282" y="433.1" class="st11" width="120.7" height="10.5"/>
	<text transform="matrix(1 0 0 1 281.9572 442.235)" class="st2 st14 st15">Pałac Kultury i Nauki</text>
</g>
<g>
	<rect x="384.8" y="335.2" class="st1" width="72" height="53.7"/>
	<g>
		<rect x="388.4" y="335.6" class="st9" width="2.1" height="5.7"/>
		<rect x="395.4" y="335.6" class="st9" width="2.1" height="5.7"/>
		<rect x="402.4" y="335.6" class="st9" width="2.1" height="5.7"/>
		<rect x="409.4" y="335.6" class="st9" width="2.1" height="5.7"/>
		<rect x="416.4" y="335.6" class="st9" width="2.1" height="5.7"/>
		<rect x="423.4" y="335.6" class="st9" width="2.1" height="5.7"/>
		<rect x="430.4" y="335.6" class="st9" width="2.1" height="5.7"/>
		<rect x="437.4" y="335.6" class="st9" width="2.1" height="5.7"/>
		<rect x="444.4" y="335.6" class="st9" width="2.1" height="5.7"/>
		<rect x="451.4" y="335.6" class="st9" width="2.1" height="5.7"/>
	</g>
	<rect x="385.4" y="353.3" class="st9" width="71.3" height="2"/>
	<g>
		<rect x="399.2" y="345.4" class="st2" width="5.2" height="5.4"/>
		<rect x="397.9" y="358.3" class="st9" width="7.8" height="25.7"/>
		<rect x="399.8" y="360.3" class="st2" width="4" height="4"/>
		<rect x="399.8" y="366" class="st2" width="4" height="15.7"/>
	</g>
	<g>
		<rect x="418.5" y="345.4" class="st2" width="5.2" height="5.4"/>
		<rect x="417.2" y="358.3" class="st9" width="7.8" height="25.7"/>
		<rect x="419.1" y="360.3" class="st2" width="4" height="4"/>
		<rect x="419.1" y="366" class="st2" width="4" height="15.7"/>
	</g>
	<g>
		<rect x="437.8" y="345.4" class="st2" width="5.2" height="5.4"/>
		<rect x="436.5" y="358.3" class="st9" width="7.8" height="25.7"/>
		<rect x="438.4" y="360.3" class="st2" width="4" height="4"/>
		<rect x="438.4" y="366" class="st2" width="4" height="15.7"/>
	</g>
</g>
<g>
	<rect x="228.2" y="335.3" class="st1" width="71.3" height="53.5"/>
	<g>
		<rect x="231.3" y="335.6" class="st9" width="2.1" height="5.7"/>
		<rect x="238.3" y="335.6" class="st9" width="2.1" height="5.7"/>
		<rect x="245.3" y="335.6" class="st9" width="2.1" height="5.7"/>
		<rect x="252.3" y="335.6" class="st9" width="2.1" height="5.7"/>
		<rect x="259.3" y="335.6" class="st9" width="2.1" height="5.7"/>
		<rect x="266.3" y="335.6" class="st9" width="2.1" height="5.7"/>
		<rect x="273.3" y="335.6" class="st9" width="2.1" height="5.7"/>
		<rect x="280.3" y="335.6" class="st9" width="2.1" height="5.7"/>
		<rect x="287.3" y="335.6" class="st9" width="2.1" height="5.7"/>
		<rect x="294.3" y="335.6" class="st9" width="2.1" height="5.7"/>
	</g>
	<g>
		<rect x="241.4" y="345.4" class="st2" width="5.2" height="5.4"/>
		<rect x="240.1" y="358.3" class="st9" width="7.8" height="25.7"/>
		<rect x="242" y="360.3" class="st2" width="4" height="4"/>
		<rect x="242" y="366" class="st2" width="4" height="15.7"/>
	</g>
	<g>
		<rect x="260.7" y="345.4" class="st2" width="5.2" height="5.4"/>
		<rect x="259.4" y="358.3" class="st9" width="7.8" height="25.7"/>
		<rect x="261.3" y="360.3" class="st2" width="4" height="4"/>
		<rect x="261.3" y="366" class="st2" width="4" height="15.7"/>
	</g>
	<g>
		<rect x="280.1" y="345.4" class="st2" width="5.2" height="5.4"/>
		<rect x="278.7" y="358.3" class="st9" width="7.8" height="25.7"/>
		<rect x="280.6" y="360.3" class="st2" width="4" height="4"/>
		<rect x="280.6" y="366" class="st2" width="4" height="15.7"/>
	</g>
	<rect x="228.2" y="353.3" class="st9" width="71.3" height="2"/>
</g>
<g>
	<g>
		<rect x="313.5" y="303.2" class="st1" width="57.7" height="10.1"/>
		<rect x="356.8" y="307.2" class="st2" width="1" height="2.6"/>
		<rect x="359.4" y="307.2" class="st2" width="1" height="2.6"/>
		<rect x="361.6" y="307.2" class="st2" width="1" height="2.6"/>
		<rect x="335.6" y="303.2" class="st1" width="12" height="10.1"/>
		<rect x="338.7" y="306.1" class="st2" width="5.9" height="4.1"/>
		<rect x="321.3" y="307.2" class="st2" width="1" height="2.6"/>
		<rect x="323.9" y="307.2" class="st2" width="1" height="2.6"/>
		<rect x="326.1" y="307.2" class="st2" width="1" height="2.6"/>
	</g>
	<rect x="299.8" y="313.3" class="st1" width="85.1" height="75.5"/>
	<rect x="320.6" y="337.7" class="st4" width="42.1" height="7.9"/>
	<rect x="328.9" y="324.6" class="st2" width="4.9" height="6"/>
	<rect x="339.4" y="324.6" class="st2" width="4.9" height="6"/>
	<rect x="350.4" y="324.6" class="st2" width="4.9" height="6"/>
	<polygon class="st2" points="324.7,388.7 319,388.7 319.4,345.7 324.4,345.7 	"/>
	<rect x="320.5" y="383.9" class="st1" width="10.7" height="4.7"/>
	<polygon class="st2" points="344.6,388.7 338.9,388.7 339.2,345.7 344.2,345.7 	"/>
	<rect x="335" y="383.9" class="st1" width="13.4" height="4.7"/>
	<polygon class="st2" points="364.3,388.7 358.6,388.7 359,345.7 364,345.7 	"/>
	<rect x="353.1" y="383.9" class="st1" width="10.7" height="4.7"/>
	<g>
		<rect x="376.7" y="326.8" class="st2" width="2.9" height="4.1"/>
		<rect x="376.6" y="333.7" class="st2" width="2.9" height="4.1"/>
		<rect x="376.6" y="340.5" class="st2" width="2.9" height="4.1"/>
		<rect x="376.5" y="347.4" class="st2" width="2.9" height="4.1"/>
		<rect x="376.4" y="354.2" class="st2" width="2.9" height="4.1"/>
		<rect x="376.3" y="361.1" class="st2" width="2.9" height="4.1"/>
		<rect x="376.3" y="367.9" class="st2" width="2.9" height="4.1"/>
		<rect x="376.2" y="374.8" class="st2" width="2.9" height="4.1"/>
	</g>
	<g>
		<rect x="305.4" y="326.8" class="st2" width="2.9" height="4.1"/>
		<rect x="305.3" y="333.7" class="st2" width="2.9" height="4.1"/>
		<rect x="305.2" y="340.5" class="st2" width="2.9" height="4.1"/>
		<rect x="305.1" y="347.4" class="st2" width="2.9" height="4.1"/>
		<rect x="305.1" y="354.2" class="st2" width="2.9" height="4.1"/>
		<rect x="305" y="361.1" class="st2" width="2.9" height="4.1"/>
		<rect x="304.9" y="367.9" class="st2" width="2.9" height="4.1"/>
		<rect x="304.8" y="374.8" class="st2" width="2.9" height="4.1"/>
	</g>
	<g>
		<g>
			<path class="st2" d="M321.2,317.9h-3.4v-5.7h3.4V317.9z M319.1,316.6h0.9v-3.2h-0.9V316.6z"/>
		</g>
		<g>
			<path class="st2" d="M327.7,317.9h-3.4v-5.7h3.4V317.9z M325.5,316.6h0.9v-3.2h-0.9V316.6z"/>
		</g>
		<g>
			<path class="st2" d="M334.1,317.9h-3.4v-5.7h3.4V317.9z M331.9,316.6h0.9v-3.2h-0.9V316.6z"/>
		</g>
		<g>
			<path class="st2" d="M340.5,317.9h-3.4v-5.7h3.4V317.9z M338.4,316.6h0.9v-3.2h-0.9V316.6z"/>
		</g>
		<g>
			<path class="st2" d="M347,317.9h-3.4v-5.7h3.4V317.9z M344.8,316.6h0.9v-3.2h-0.9V316.6z"/>
		</g>
		<g>
			<path class="st2" d="M353.4,317.9H350v-5.7h3.4V317.9z M351.3,316.6h0.9v-3.2h-0.9V316.6z"/>
		</g>
		<g>
			<path class="st2" d="M359.9,317.9h-3.4v-5.7h3.4V317.9z M357.7,316.6h0.9v-3.2h-0.9V316.6z"/>
		</g>
		<g>
			<path class="st2" d="M366.3,317.9h-3.4v-5.7h3.4V317.9z M364.1,316.6h0.9v-3.2h-0.9V316.6z"/>
		</g>
	</g>
	<g>
		<rect x="328.9" y="360" class="st2" width="5.7" height="4"/>
		<rect x="328.9" y="348.9" class="st2" width="5.7" height="6.9"/>
		<rect x="328.9" y="369.2" class="st2" width="5.7" height="19.5"/>
	</g>
	<g>
		<rect x="348.7" y="360" class="st2" width="5.7" height="4"/>
		<rect x="348.7" y="348.9" class="st2" width="5.7" height="6.9"/>
		<rect x="348.7" y="369.2" class="st2" width="5.7" height="19.5"/>
	</g>
	<rect x="350.4" y="331.8" class="st2" width="4.9" height="2.7"/>
	<rect x="339.4" y="331.8" class="st2" width="4.9" height="2.7"/>
	<rect x="328.9" y="331.8" class="st2" width="4.9" height="2.7"/>
	<rect x="301" y="314.6" class="st16" width="11.1" height="73"/>
	<rect x="372.5" y="314.6" class="st16" width="11.1" height="72.9"/>
	<rect x="313.4" y="313.3" class="st4" width="57.8" height="75.4"/>
	<line class="st9" x1="313" y1="321.6" x2="371.5" y2="321.6"/>
	<line class="st9" x1="371.3" y1="317.5" x2="385.1" y2="317.5"/>
	<line class="st9" x1="300" y1="317.5" x2="313.9" y2="317.5"/>
</g>
</svg>
